<svg width="384" height="128" viewBox="0 0 384 128" fill="" xmlns="http://www.w3.org/2000/svg">
<path d="M235.012 99.3728H260.248C261.16 99.3728 261.768 99.977 261.768 101.186C261.768 102.395 261.16 102.999 260.248 102.999H235.012V108.438C235.012 110.856 237.444 112.065 242.005 112.065H260.248C261.16 112.065 261.768 112.669 261.768 113.878C261.768 115.086 261.16 115.691 260.248 115.691H241.701C234.403 115.691 230.451 113.273 230.451 108.74V94.2355C230.451 91.8182 231.363 90.0051 233.187 89.0989C235.012 87.8899 238.052 87.2858 241.701 87.2858H247.174C248.086 87.2858 248.694 87.8899 248.694 89.0989C248.694 90.3072 248.086 90.6093 247.174 90.6093H243.829C238.052 90.6093 235.012 91.8182 235.012 94.2355V99.3728Z" fill=""/>
<path d="M304.033 112.669C304.033 113.576 303.729 114.18 303.121 114.784C302.513 115.388 301.905 115.388 301.297 115.388C300.992 115.388 300.688 115.388 300.384 115.086C300.08 115.086 299.776 114.784 299.472 114.482L274.236 91.8182V113.273C274.236 114.482 273.627 115.086 272.107 115.086C270.587 115.086 269.978 114.482 269.978 113.273V88.7962C269.978 87.8899 270.283 87.2858 270.891 86.983C271.499 86.681 272.107 86.3789 272.715 86.3789C273.019 86.3789 273.628 86.3789 273.932 86.681C274.236 86.681 274.54 86.983 274.844 87.2858L299.776 109.345V88.192C299.776 86.983 300.384 86.3789 301.905 86.3789C303.121 86.3789 304.033 86.983 304.033 88.192V112.669Z" fill=""/>
<path d="M344.168 108.74C344.168 113.274 340.519 115.389 333.526 115.389H314.371C313.154 115.389 312.85 114.785 312.85 113.576C312.85 112.367 313.458 112.065 314.371 112.065H333.83C337.782 112.065 339.607 110.856 339.607 108.74V106.021C339.607 103.604 337.174 102.395 332.614 102.395H324.1C316.499 102.395 312.85 100.28 312.85 96.3514V93.6314C312.85 89.0989 316.195 86.9837 322.58 86.9837H327.444C328.661 86.9837 328.965 87.5878 328.965 88.7968C328.965 90.0051 328.357 90.3078 327.444 90.3078H321.972C318.627 90.3078 317.107 91.5162 317.107 93.9341V96.0493C317.107 98.1645 319.235 99.0707 323.188 99.0707H332.006C339.911 99.0707 343.864 101.186 343.864 105.719V108.74H344.168Z" fill=""/>
<path d="M357.242 99.3728H382.479C383.391 99.3728 383.999 99.977 383.999 101.186C383.999 102.395 383.391 102.999 382.479 102.999H357.242V108.438C357.242 110.856 359.675 112.065 364.236 112.065H382.479C383.391 112.065 383.999 112.669 383.999 113.878C383.999 115.086 383.391 115.691 382.479 115.691H363.932C356.634 115.691 352.682 113.273 352.682 108.74V94.2355C352.682 91.8182 353.594 90.0051 355.418 89.0989C357.242 87.8899 360.283 87.2858 363.932 87.2858H368.797C369.709 87.2858 370.317 87.8899 370.317 89.0989C370.317 90.3072 369.709 90.6093 368.797 90.6093H365.452C359.675 90.6093 356.634 91.8182 356.634 94.2355V99.3728H357.242Z" fill=""/>
<path d="M186.972 77.616C187.276 78.2202 187.58 78.8243 187.884 79.7312C188.188 80.3354 188.492 80.6374 188.492 81.2422C188.188 80.6374 187.884 79.7312 187.58 79.127C187.58 79.127 187.58 79.127 187.58 78.8243C187.276 78.2202 186.972 77.616 186.668 77.0112L186.364 76.7091C186.364 76.105 186.364 76.7091 186.972 77.616Z" fill=""/>
<path d="M187.58 48.6063C185.147 47.3976 183.018 46.1888 180.586 44.9801C181.802 46.7932 183.322 48.6063 185.451 50.1172C187.275 51.9303 189.404 53.4412 190.924 54.9521C196.093 58.8805 200.653 63.4133 203.39 68.8525C202.174 63.111 199.437 57.3695 194.573 52.5347C192.444 51.0237 189.708 49.815 187.58 48.6063Z" fill=""/>
<path d="M204.303 76.407C204.303 76.105 204.303 76.105 204.303 75.8029C202.782 70.6656 199.741 66.1325 195.181 62.8087C193.66 61.6 192.444 59.7869 191.532 57.9738C190.316 56.1607 189.1 54.3476 186.971 53.441C179.066 49.2105 170.856 45.2821 161.126 43.1669C151.396 41.0516 139.843 40.7494 129.809 44.9799C127.376 44.9799 124.943 45.2821 122.511 45.5843C124.031 45.8865 125.552 46.1887 127.072 46.1887C128.592 46.1887 129.809 46.1887 131.329 45.8865C131.633 45.8865 131.937 45.8865 132.241 45.8865C133.153 45.5843 133.153 45.5843 133.761 45.2821C139.843 47.6996 148.052 46.793 158.086 47.3974C167.816 47.6996 178.762 49.8149 185.451 53.7432C187.276 54.9519 188.796 56.4629 190.316 57.6716C191.836 59.1825 193.356 60.3912 194.573 62.2044C192.444 61.6 188.796 60.9956 187.276 60.0891C183.627 57.6716 179.978 54.9519 175.417 53.1389C173.289 52.2323 170.856 51.3258 168.424 50.7214C165.991 50.1171 163.255 49.8149 160.822 49.8149C162.646 51.0236 163.863 52.2323 165.383 53.1389C166.6 54.3476 168.424 55.2542 170.248 56.1607C171.16 56.4629 172.984 56.4629 174.809 56.7651C176.633 56.7651 178.154 57.0673 178.762 57.6716C182.714 60.6935 186.971 62.8087 190.62 65.8304C193.965 68.8525 196.701 72.4787 197.005 77.3133C197.005 78.2202 195.181 79.1264 195.789 80.0333C194.573 74.896 191.228 70.6656 187.276 67.3415C183.322 64.0173 178.458 61.6 173.593 58.8803C172.68 57.6716 171.464 57.0673 170.552 55.8585C168.424 55.5564 166.6 55.5564 165.383 54.9519C158.998 52.2323 152.612 53.7432 147.444 55.8585C144.707 56.7651 142.275 57.6716 140.147 58.276C137.714 58.8803 135.586 58.8803 132.545 58.276C134.065 58.276 135.586 57.9738 137.714 57.3694C139.539 56.7651 141.971 55.8585 144.403 54.9519C146.836 54.0454 149.572 53.1389 151.7 52.5345C154.133 51.9301 156.262 51.3258 158.086 50.7214C153.525 50.1171 145.619 50.7214 138.322 52.2323C131.025 53.7432 124.335 56.1607 119.471 57.3694C113.693 58.8803 111.261 60.6935 109.741 62.5066C108.829 63.4131 108.221 64.3194 107.612 65.5283C106.7 66.7373 105.788 68.2483 104.572 69.7587C103.964 70.3635 103.356 73.0829 103.052 75.8029C102.748 77.0112 103.052 78.5222 103.052 79.4285C103.356 80.6374 103.356 81.5443 103.356 82.4506C104.268 80.3354 104.876 78.2202 105.788 76.7091C106.092 75.8029 106.7 75.1981 107.004 74.2919C107.612 73.687 107.916 73.0829 108.829 72.7808C109.437 71.8739 110.349 70.9677 111.261 70.0608C112.173 69.1546 113.085 68.2483 114.301 67.3415C116.43 65.5283 118.863 64.0173 121.295 62.5066C126.16 59.7869 130.721 58.5782 131.937 58.5782C132.545 58.5782 132.241 58.8803 131.025 59.4847C129.809 60.0891 127.376 61.2978 124.335 63.1109C122.815 64.0173 121.295 64.9242 119.471 66.1325C117.646 67.3415 115.822 68.8525 113.997 70.3635C110.653 73.687 107.004 78.2202 107.004 83.6595C107.308 83.3575 108.829 80.3354 110.957 78.2202C113.085 76.105 116.126 74.896 116.43 75.1981C117.038 75.8029 113.389 78.2202 111.261 81.2416C110.349 82.7527 109.741 84.5658 109.741 86.0768C109.741 86.681 109.741 87.2858 109.741 87.8899C109.741 87.8899 110.045 87.8899 110.045 88.192H110.349C110.653 88.192 110.957 88.192 111.261 88.192C111.565 88.192 111.565 88.192 111.869 88.192H112.173V87.8899V87.5879V86.983H112.477C113.389 86.3789 114.301 85.7747 115.214 85.4726C117.342 84.5658 118.863 84.5658 119.167 84.2637C118.863 83.6595 119.167 83.6595 118.254 82.7527C119.167 82.1485 119.471 81.2416 120.383 80.0333C120.687 79.7312 120.991 79.1264 121.295 78.8243C121.599 78.2202 121.903 77.6154 122.511 77.3133C123.423 76.4071 124.335 75.1981 125.856 74.2919C128.288 72.4787 131.937 71.8739 133.457 73.6871C133.761 73.9898 136.194 72.1766 137.106 71.5718C139.539 71.5718 141.059 72.4787 142.275 73.6871C143.491 74.896 144.403 75.8029 147.14 76.105C148.66 76.4071 148.66 77.6154 148.356 78.5223C148.356 79.4285 147.748 80.6375 148.964 81.2416C152.612 82.1485 154.133 84.8679 152.917 87.2858C151.7 89.703 147.748 91.8183 144.099 92.7245C152.004 94.2355 148.66 94.8403 147.444 95.1424C145.619 96.6534 142.579 97.5597 139.539 97.5597C136.498 97.5597 138.322 99.0707 135.89 97.8618C134.369 97.8618 131.633 91.8182 130.113 90.912L120.687 89.0989C120.383 90.3072 120.687 91.8182 121.903 92.4224C122.207 93.3293 123.423 93.6314 124.639 93.6314C124.943 93.9334 125.856 93.9334 125.856 96.0486C122.511 94.8403 119.167 93.3293 116.734 90.3072L117.038 93.6314C117.038 93.6314 114.301 92.4224 114.605 92.7245C112.781 93.0272 112.477 90.3072 111.869 91.5162C111.261 94.2355 112.781 96.3507 114.909 97.8618C115.214 98.1638 115.214 97.8618 115.518 98.1638L115.822 98.4666C116.126 98.7686 116.126 98.7686 116.734 98.7686C117.038 99.0707 117.342 99.6749 117.646 99.977C117.646 102.395 117.95 104.812 119.167 107.229C120.079 108.74 121.295 110.252 123.119 111.46C124.639 112.669 123.119 117.201 124.943 118.108C128.592 119.921 132.849 121.13 137.41 122.943C144.099 125.059 151.396 126.569 158.694 126.267C165.991 126.267 173.289 125.059 179.674 122.641C192.444 118.108 202.478 109.043 206.431 96.3507C207.039 95.1424 207.647 92.4224 207.039 90.0051C205.519 98.4666 200.653 105.416 194.573 110.554C188.492 115.691 180.89 119.317 172.68 121.432C164.471 123.548 155.349 123.85 146.836 122.641C141.971 122.036 138.018 119.317 134.673 116.597C141.059 118.712 148.66 120.223 156.262 119.921C161.43 119.921 166.295 119.317 171.464 118.108C176.329 116.899 181.194 115.086 185.451 112.971C193.965 108.136 201.262 100.884 203.998 91.2141C204.607 90.0051 204.911 88.7962 204.911 87.5879C205.823 87.8899 206.431 88.7962 206.735 90.0051C206.735 89.401 207.039 88.7962 207.039 87.8899L207.343 85.7747C208.255 79.4285 206.431 73.0829 203.39 67.9456C203.998 71.2698 204.303 73.9898 204.303 76.407ZM186.971 77.0112C187.276 77.3133 187.58 77.9181 187.884 78.8243C187.884 78.8243 187.884 78.8243 187.884 79.1264C188.188 79.7312 188.492 80.3354 188.796 81.2416C190.62 85.7747 190.924 90.912 188.796 95.4445C189.1 94.5376 189.1 93.6314 189.1 93.3293C190.012 89.401 190.012 86.0768 189.404 83.3574C189.1 82.1485 188.796 80.9395 188.492 79.7312C186.059 74.5939 181.498 70.9677 176.633 67.9456C171.16 64.9242 164.775 63.1109 158.694 62.5066C169.64 60.9957 181.498 67.0394 186.971 77.0112ZM120.991 106.021C119.471 104.51 118.254 102.697 117.342 101.186C118.559 102.697 120.383 104.51 122.207 106.021C123.119 106.625 123.727 107.834 124.335 109.345C123.119 108.136 122.207 107.229 120.991 106.021ZM200.653 84.2637C200.653 85.4726 200.349 86.9831 200.349 88.4941C200.349 89.703 199.741 91.2141 199.437 92.4224C197.917 97.8618 194.269 102.395 190.012 105.718C185.755 109.345 180.586 111.763 175.113 113.576C164.167 116.899 151.7 116.899 141.667 114.18C131.633 111.763 127.68 104.51 123.119 100.884C124.943 101.186 126.464 101.488 128.288 101.79C130.721 102.697 130.113 106.927 133.153 107.834C134.673 108.438 136.194 109.345 137.714 109.949C139.539 110.554 141.363 111.158 143.187 111.763C145.011 112.367 147.14 112.971 149.572 113.273C151.7 113.878 154.133 114.18 156.262 114.18C165.079 114.784 174.201 112.971 180.282 108.438C177.546 109.949 174.201 111.158 170.856 111.46C167.208 111.763 163.863 112.065 159.606 111.158C162.646 111.158 165.079 110.856 167.816 110.252C170.552 109.647 173.289 109.043 175.721 107.834C176.329 106.927 177.242 106.323 178.154 105.718C179.066 105.114 179.674 104.812 180.586 104.208C183.931 102.999 186.971 101.488 189.1 99.3728C194.573 94.2355 196.701 87.2858 197.005 80.6374C197.005 73.9898 195.181 67.9456 192.748 61.9022C196.093 66.1325 198.525 70.6656 199.741 75.8029C200.045 77.0112 200.349 78.2202 200.349 79.7312C200.349 80.3354 200.653 80.9395 200.653 81.8464V84.2637Z" fill=""/>
<path d="M118.559 48.6062C120.383 48.3041 121.903 47.6997 123.728 47.3975C124.336 47.3975 124.64 47.3975 125.248 47.3975C124.64 47.3975 124.032 47.0953 123.119 47.0953C122.207 47.0953 120.991 48.0019 119.775 48.3041C119.471 48.3041 119.471 47.6997 119.167 48.0019C118.255 48.3041 117.343 48.9084 116.126 48.9084C115.822 49.2106 114.91 48.3041 114.302 48.6062C113.39 48.9084 110.653 50.4193 112.173 50.1171C114.91 49.5128 116.43 48.9084 118.559 48.6062Z" fill=""/>
<path d="M337.479 69.1552C335.351 69.7594 333.222 70.3635 330.79 69.7594C329.878 69.7594 331.094 67.04 329.27 67.3421C325.925 67.3421 322.58 67.3421 319.54 66.4352C318.02 66.4352 317.108 62.8091 315.587 62.8091C312.243 62.507 302.817 62.507 307.378 64.32C314.675 66.7373 319.54 67.9462 326.229 69.4573C332.006 70.0614 337.479 70.0614 343.56 70.0614C345.081 70.0614 346.601 70.6662 348.122 70.9683C346.297 70.3635 344.473 69.4573 342.344 68.5504C341.128 68.2483 339.608 68.5504 337.479 69.1552Z" fill=""/>
<path d="M373.661 65.831C373.357 65.2269 373.053 64.32 372.141 64.0179C371.533 64.32 370.317 65.2269 370.317 65.2269C368.797 64.6221 367.276 64.0179 365.756 64.32C364.236 64.32 362.715 64.9248 361.195 65.2269C361.803 65.831 362.108 66.1331 362.716 66.7379C364.54 66.4352 364.844 65.529 363.02 65.2269C364.844 66.1331 366.668 66.4352 368.493 66.4352C370.013 66.4352 371.837 66.1331 373.661 65.831Z" fill=""/>
<path d="M318.628 60.6936C314.979 59.787 311.939 57.974 309.202 54.9521C310.419 56.1608 309.81 56.7652 308.29 56.1608L307.682 54.3477C311.027 54.9521 314.371 55.2543 316.499 58.5783C316.499 58.5783 318.02 58.5783 318.932 58.2761C318.932 58.8805 318.628 59.787 318.628 60.6936C319.236 60.9958 320.148 60.9958 320.756 61.2979C319.844 59.4849 316.195 55.8586 316.195 55.8586C307.682 52.5347 299.776 48.6063 292.479 44.9801C291.567 45.2822 290.959 45.5845 290.351 44.9801C290.047 44.3757 289.438 43.7713 289.134 43.167C287.918 42.5626 287.006 41.9583 285.789 41.3539C285.485 41.0517 285.181 41.0517 284.877 40.7495L284.573 40.4474C282.141 39.2386 280.317 38.332 277.884 36.8211C277.276 36.519 276.668 36.519 276.06 36.2168C273.932 35.6124 272.107 35.3102 271.499 33.4972C271.195 33.195 270.587 33.195 270.283 32.8927C270.283 32.8927 270.283 33.195 270.587 33.195C270.283 32.8927 270.283 32.8927 270.283 32.5906C268.458 31.684 266.33 30.7775 264.506 29.8709C262.682 28.9644 260.857 28.0579 258.728 27.1513C256.904 26.2447 254.776 25.3382 252.952 24.4317C227.411 12.9487 201.566 7.50945 172.376 3.88324C156.566 2.07015 141.059 1.46578 125.552 1.76796C110.045 2.07015 95.7542 5.99852 81.4637 10.5313C66.5651 15.064 52.8822 21.1077 37.3754 26.8491C31.5983 29.2666 23.9969 34.4037 17.3076 41.0517C10.6184 47.3975 4.84132 54.9521 1.19264 60.3914C-1.84792 69.1546 1.4967 72.7808 4.84132 74.5939C6.05755 75.1981 6.96973 75.5008 8.18592 75.8029C8.48998 76.105 9.09811 76.105 9.70624 76.407C11.2265 77.0112 13.0509 77.3139 17.0036 78.5222C12.7468 77.3139 20.3482 77.3139 24.605 78.5222C27.6456 79.7312 31.5983 79.1264 35.247 77.9181C38.8957 77.0112 42.5443 75.1981 46.193 74.2918C48.0173 73.9898 49.8417 73.0829 51.666 72.1767C62.308 69.1546 71.4298 64.0173 82.3757 60.0892C85.1123 59.1827 87.545 57.3695 89.673 56.463C91.4976 55.8586 93.3216 55.5565 94.8422 54.9521C96.9702 54.3477 99.0989 53.4412 100.924 52.5347C98.7949 53.139 97.2742 53.7434 95.1462 54.6499C93.6256 55.2543 96.0582 53.4412 96.9702 52.8368C97.2742 52.5347 98.1869 53.139 98.7949 52.8368C99.7069 52.5347 100.619 51.9303 101.532 51.6281C101.836 51.3259 102.14 51.9303 102.14 51.9303C103.66 51.3259 104.268 50.1172 105.484 50.1172C106.092 50.1172 106.7 50.1172 107.612 50.1172C107.917 50.1172 108.525 50.1172 108.829 49.815L109.437 49.5128C111.261 48.6063 113.389 48.0019 115.518 47.3975C114.301 47.6997 113.085 47.6997 111.869 47.6997C112.477 47.6997 112.477 48.0019 111.869 48.0019L111.261 47.6997C112.173 47.3975 113.389 46.7932 114.606 47.3975C114.606 47.3975 114.91 47.0954 115.214 47.0954C115.518 47.0954 115.518 47.3975 115.822 47.6997C116.126 47.6997 116.43 47.6997 116.43 47.3975C115.822 47.0954 114.301 46.7932 114.301 46.7932C111.261 47.3975 108.221 47.6997 105.484 48.6063C105.18 48.9084 105.18 48.9084 104.876 48.9084C104.572 48.9084 104.268 48.9084 104.268 48.9084L103.052 49.2106C103.052 49.2106 102.748 49.2106 102.748 49.5128C102.444 49.5128 102.748 49.815 102.748 49.815C102.444 49.815 102.444 49.815 102.14 49.815L102.748 49.5128H103.052L100.315 50.1172C100.011 50.1172 100.011 50.1172 99.7069 50.4194C99.0989 50.7215 98.4909 51.0238 97.8829 50.7215H97.2742H96.9702L94.8422 51.3259C93.3216 51.6281 92.1056 51.9302 90.5856 52.5347C81.4637 54.9521 73.5584 58.2761 64.4365 61.6001C59.5715 63.4132 54.7066 64.9242 49.8417 66.4352C44.9768 67.9462 40.72 69.4566 36.1592 70.6656C32.2064 71.5718 28.2537 72.1767 24.3009 71.8746C25.2131 71.2698 25.8212 70.3635 26.7334 69.7594C30.078 66.4352 34.3348 62.2045 42.8484 58.8805C40.72 58.8805 37.6794 58.5783 41.3281 55.2543C44.9768 51.6281 51.9701 47.6997 58.6593 48.0019C68.3891 48.6063 76.5984 44.6779 85.4163 40.4474C87.545 39.5408 89.977 38.332 92.1056 37.1233C94.2342 35.9146 96.6662 35.3102 99.0989 34.4037C101.532 33.4972 103.66 32.5906 106.092 31.9862C108.525 31.3818 110.957 31.0797 113.389 30.7775C118.255 30.1731 123.119 29.2666 128.897 28.36C144.099 28.36 158.39 27.7557 172.985 28.36C187.884 28.6622 203.086 30.4753 218.593 35.0081C220.721 35.6124 222.85 35.9146 224.675 36.2168C226.803 36.519 228.627 36.8211 230.755 36.8211C234.708 37.1233 238.661 37.1233 242.31 37.7277C247.478 39.2386 252.344 42.2604 256.296 44.0735C259.337 45.2822 262.378 46.491 265.418 47.0954C268.458 48.0019 271.195 48.6063 274.236 49.5128C271.195 48.3041 268.458 47.3975 265.722 46.491C262.986 45.5845 260.249 44.6779 256.904 43.7713C252.648 41.9583 261.465 41.6561 264.506 42.2604C266.026 42.2604 266.634 45.8866 268.154 45.8866C270.891 47.0954 273.932 47.0954 276.972 47.6997C278.492 47.6997 276.972 50.1172 277.884 50.1172C282.141 51.3259 286.702 49.5128 289.134 51.6281C290.959 52.8368 292.479 54.3477 293.999 55.2543C294.911 55.8586 296.127 56.4631 297.344 57.0674C298.256 57.0674 298.864 57.3695 299.776 57.3695C305.249 58.5783 312.243 59.787 318.628 60.6936ZM91.4976 52.2325C90.8896 52.5347 89.977 52.8368 89.369 52.5347C89.977 51.9302 90.5856 52.2325 91.4976 52.2325ZM249.911 24.7338C252.952 24.4317 254.472 26.2447 255.688 28.36C253.56 28.0579 251.431 26.8491 249.911 24.7338Z" fill=""/>
</svg>
